<svg xmlns="http://www.w3.org/2000/svg" width="85" height="85" viewBox="0 0 85 85">
    <g data-name="Ellipse 3" style="fill: none; stroke: #ffffff">
        <circle cx="42.5" cy="42.5" r="42.5" style="stroke: none"/>
        <circle cx="42.5" cy="42.5" r="42" style="fill: none"/>
    </g>
    <path data-name="Path 26" d="M 58.8 30.3 H 48.2 C 49.2 29.8 50 29.2 50.8 28.5 C 51.6 27.7 52.1 26.6 52.1 25.5 C 52.1 24.4 51.6 23.3 50.8 22.5 C 49.1 20.9 46.5 20.9 44.8 22.5 C 43.7 23.7 42.8 25.2 42.3 26.8 C 41.8 25.2 40.9 23.7 39.8 22.5 C 38.1 20.9 35.5 20.9 33.8 22.5 C 33 23.3 32.5 24.4 32.5 25.5 C 32.5 26.6 33 27.7 33.8 28.5 C 34.6 29.2 35.4 29.8 36.4 30.3 H 25.8 C 25.6 30.3 25.4 30.4 25.2 30.5 C 25.1 30.7 25 30.9 25 31.1 v 6 C 25 37.3 25.1 37.5 25.2 37.7 C 25.4 37.8 25.6 37.9 25.8 37.9 h 0.8 v 17.3 C 26.6 55.6 27 56 27.4 56 h 30 C 57.8 56 58.2 55.6 58.2 55.2 V 37.8 h 0.8 C 59.4 37.8 59.8 37.4 59.8 37 v -6 C 59.8 30.6 59.5 30.3 59.1 30.2 z M 38.5 54.3 H 28 V 37.8 h 10.5 z m 0 -18 H 26.5 v -4.5 h 12 z M 34.8 27.4 C 33.7 26.3 33.7 24.6 34.8 23.5 C 35.9 22.4 37.6 22.4 38.7 23.5 C 40.3 25.4 41.3 27.7 41.6 30.2 v 0 h -0.1 C 39 30 36.7 29 34.8 27.4 z m 9.7 26.9 h -4.5 V 37.8 h 4.5 z m 0 -18 h -4.5 v -4.5 h 4.5 z m -1.4 -6 h -0.1 v 0 C 43.3 27.8 44.3 25.5 45.9 23.6 C 47 22.5 48.7 22.5 49.8 23.6 C 50.9 24.7 50.9 26.4 49.8 27.5 C 47.9 29.1 45.6 30.1 43.2 30.4 z m 13.4 24 H 46 V 37.8 h 10.5 v 16.5 z m 1.5 -18 H 46 v -4.5 H 58 z" transform="matrix(1,0,0,1,0,-0.3)" style="fill: #ffffff"/>
</svg>
