<svg xmlns="http://www.w3.org/2000/svg" width="85" height="85" viewBox="0 0 85 85">
    <g data-name="Ellipse 3" style="fill: none; stroke: #ffffff">
        <circle cx="42.5" cy="42.5" r="42.5" style="stroke: none"/>
        <circle cx="42.5" cy="42.5" r="42" style="fill: none"/>
    </g>
    <g data-name="Group 32">
        <path data-name="Path 22" d="M 84.8 22.6 C 84.8 22.6 84.8 22.5 84.8 22.5 V 22.5 C 84.8 22.5 84.8 22.4 84.8 22.4 V 22.4 C 84.8 22.4 84.8 22.3 84.8 22.3 l 0 0 C 84.8 22.3 84.8 22.2 84.8 22.2 l 0 0 C 84.8 22.2 84.7 22.2 84.7 22.2 l 0 0 l 0 0 l 0 0 l 0 0 C 84.7 22.2 84.6 22.2 84.6 22.2 l 0 0 C 84.6 22.2 84.5 22.2 84.5 22.2 L 84.5 22 C 84.5 22 84.4 22 84.4 22 h 0 C 84.4 22 84.3 22 84.3 22 L 84.3 22 C 84.3 22 84.2 22 84.2 22 H 84.2 C 84.2 22 84.1 22 84.1 22 h 0 C 84.1 22 84 22 84 22 h 0 L 58.8 33.3 C 58.5 33.4 58.4 33.8 58.5 34.1 C 58.6 34.4 59 34.5 59.3 34.4 l 21.8 -9.7 L 60.9 42.5 l -10.1 -4.5 l 6.1 -2.7 C 57.2 35.2 57.3 34.8 57.2 34.5 C 57.1 34.2 56.7 34.1 56.4 34.2 L 49.2 37.5 C 49 37.6 48.8 37.8 48.8 38 C 48.8 38.3 49 38.5 49.2 38.6 l 11.3 5 l 1.2 9.4 v 0 C 61.7 53 61.7 53.1 61.7 53.1 v 0 C 61.7 53.1 61.7 53.2 61.7 53.2 v 0 C 61.7 53.2 61.7 53.3 61.7 53.3 l 0 0 C 61.7 53.3 61.8 53.4 61.8 53.4 l 0 0 C 61.8 53.4 61.9 53.4 61.9 53.4 h 0 C 61.9 53.4 62 53.4 62 53.4 h 0 C 62 53.4 62.1 53.4 62.1 53.4 h 0 C 62.1 53.4 62.2 53.4 62.2 53.4 C 62.2 53.4 62.3 53.4 62.3 53.4 h 0 C 62.3 53.4 62.4 53.4 62.4 53.4 l 0 0 C 62.4 53.4 62.5 53.4 62.5 53.4 C 62.5 53.4 62.6 53.4 62.6 53.4 l 0 0 l 0 0 l 5 -4.9 l 8.4 6.9 C 76.2 55.5 76.3 55.5 76.5 55.5 C 76.7 55.4 76.8 55.3 76.9 55.1 L 84.8 22.7 C 84.8 22.7 84.8 22.6 84.8 22.6 V 22.6 C 84.8 22.6 84.8 22.5 84.8 22.5 s 0 0 0 0 z m -22.2 28.3 l -1 -7.4 l 17.7 -15.8 l -14.3 17.8 l 0 0 l 0 0 l 0 0 q 0 0 0 0 v 0 z m 1.5 -0.5 l 1.6 -3.5 l 1.1 0.9 z m 12 3.5 l -9.8 -8.1 L 83.1 25 z" transform="translate(-24.9)" style="fill: #feffff"/>
        <path data-name="Path 23" d="M 204.1 419.8 C 203.9 419.6 203.5 419.6 203.3 419.8 l -5.2 5.2 C 197.9 425.1 197.7 425.4 197.8 425.6 C 197.8 425.9 198 426.1 198.3 426.1 C 198.5 426.2 198.8 426 198.9 425.8 l 5.2 -5.2 C 204.3 420.4 204.3 420 204.1 419.8 z" transform="translate(-162.3,-366.6)" style="fill: #feffff"/>
        <path data-name="Path 24" d="M 105.2 337.5 C 105 337.3 104.6 337.3 104.4 337.5 l -5.1 5.1 C 99.2 342.8 99.2 343.1 99.4 343.3 C 99.6 343.5 99.9 343.5 100.1 343.4 l 5.1 -5.1 C 105.4 338.1 105.4 337.7 105.2 337.5 z" transform="translate(-71.2,-290.7)" style="fill: #feffff"/>
        <path data-name="Path 25" d="M 74.2 419.8 C 74 419.6 73.6 419.6 73.4 419.8 l -7.7 7.7 C 65.5 427.6 65.3 427.9 65.4 428.1 C 65.4 428.4 65.6 428.6 65.9 428.6 C 66.1 428.7 66.4 428.5 66.5 428.3 l 7.7 -7.7 C 74.4 420.4 74.4 420 74.2 419.8 z" transform="translate(-40.1,-366.6)" style="fill: #feffff"/>
    </g>
</svg>
